<svg xmlns="http://www.w3.org/2000/svg" width="21.013" height="23.729" viewBox="0 0 21.013 23.729">
  <path id="Icon_awesome-user" data-name="Icon awesome-user" d="M9.506,10.865A5.432,5.432,0,1,0,4.074,5.432,5.432,5.432,0,0,0,9.506,10.865Zm3.8,1.358H12.6a7.388,7.388,0,0,1-6.188,0H5.7a5.705,5.705,0,0,0-5.7,5.7v1.765a2.038,2.038,0,0,0,2.037,2.037H16.976a2.038,2.038,0,0,0,2.037-2.037V17.926A5.705,5.705,0,0,0,13.309,12.223Z" transform="translate(1 1)" fill="none" stroke="#3481f0" stroke-width="2"/>
</svg>
