<svg xmlns="http://www.w3.org/2000/svg" xmlns:xlink="http://www.w3.org/1999/xlink" width="25" height="26" viewBox="0 0 25 26">
  <defs>
    <clipPath id="clip-path">
      <rect id="Rectangle_206" data-name="Rectangle 206" width="25" height="26" transform="translate(-7.449 11.933)" fill="#fff" stroke="#707070" stroke-width="1"/>
    </clipPath>
  </defs>
  <g id="Mask_Group_1" data-name="Mask Group 1" transform="translate(7.449 -11.934)" clip-path="url(#clip-path)">
    <g id="instagram-igtv-icon" transform="translate(-5.854 14.598)">
      <path id="Path_114" data-name="Path 114" d="M14.829,3.047H12.461l1.206-1.36A1.016,1.016,0,1,0,12.146.341l-1.73,1.95L8.688.341A1.016,1.016,0,1,0,7.167,1.688l1.206,1.36H5.786a5.782,5.782,0,0,0-4.1,1.7A5.726,5.726,0,0,0,0,8.8v8.775a5.726,5.726,0,0,0,1.69,4.054,5.779,5.779,0,0,0,4.1,1.7h9.043a5.79,5.79,0,0,0,5.786-5.756V8.8a5.79,5.79,0,0,0-5.786-5.756Zm.492,11.228a1.016,1.016,0,1,0,.509-1.967l-5.469-1.415a1.016,1.016,0,0,0-1.238.729,1.03,1.03,0,0,0-.032.3l.061,1.212-3.64-1.048a1.015,1.015,0,0,0-.558,1.952l4.941,1.424a1.031,1.031,0,0,0,.391.059,1.019,1.019,0,0,0,.968-1.063l-.063-1.25,4.13,1.065ZM5.786,5.028h9.043a3.728,3.728,0,0,1,2.636,1.1A3.777,3.777,0,0,1,18.574,8.8v8.775a3.777,3.777,0,0,1-1.109,2.678,3.72,3.72,0,0,1-2.636,1.1H5.788a3.728,3.728,0,0,1-2.636-1.1,3.777,3.777,0,0,1-1.109-2.678V8.8A3.777,3.777,0,0,1,3.152,6.125a3.712,3.712,0,0,1,2.634-1.1Z" transform="translate(0 0.001)" fill="#3481f0"/>
    </g>
  </g>
</svg>
