<svg xmlns="http://www.w3.org/2000/svg" width="25.096" height="21.321" viewBox="0 0 25.096 21.321">
  <g id="Group_269" data-name="Group 269" transform="translate(-60.974 -249.6)">
    <path id="Path_7" data-name="Path 7" d="M24.6,21.675a2.124,2.124,0,0,1-2.1,2.147H3.6a2.124,2.124,0,0,1-2.1-2.147V9.867A2.124,2.124,0,0,1,3.6,7.72H7.8L9.9,4.5h6.3l2.1,3.22h4.2a2.124,2.124,0,0,1,2.1,2.147Z" transform="translate(60.474 246.1)" fill="none" stroke="#3481f0" stroke-linecap="round" stroke-linejoin="round" stroke-width="2"/>
    <path id="Path_8" data-name="Path 8" d="M20.4,17.794A4.2,4.2,0,1,1,16.2,13.5a4.247,4.247,0,0,1,4.2,4.294Z" transform="translate(57.323 243.54)" fill="none" stroke="#3481f0" stroke-linecap="round" stroke-linejoin="round" stroke-width="2"/>
  </g>
</svg>
