<svg id="instagram-reels-icon" xmlns="http://www.w3.org/2000/svg" width="21.655" height="21.786" viewBox="0 0 21.655 21.786">
  <path id="Path_116" data-name="Path 116" d="M6.23,0h9.195a6.253,6.253,0,0,1,6.23,6.23v9.328a6.214,6.214,0,0,1-1.83,4.4l0,0a6.212,6.212,0,0,1-4.4,1.83H6.23a6.22,6.22,0,0,1-4.4-1.83l-.043-.048A6.206,6.206,0,0,1,0,15.556V6.23A6.247,6.247,0,0,1,6.23,0Zm9.994,5.5.012.02h3.83a4.716,4.716,0,0,0-4.642-3.984H13.852L16.225,5.5Zm-1.771.02L12.069,1.535H6.838L9.251,5.519Zm-6.987,0L5.133,1.665A4.73,4.73,0,0,0,1.589,5.519ZM20.12,7.055H1.535v8.5a4.68,4.68,0,0,0,1.34,3.276l.039.037A4.685,4.685,0,0,0,6.23,20.253h9.195a4.679,4.679,0,0,0,3.314-1.378l0,0a4.679,4.679,0,0,0,1.378-3.314v-8.5ZM9.033,9.743l4.757,3.094a.734.734,0,0,1,.2.191.692.692,0,0,1-.177.961l-4.737,2.8a.694.694,0,0,1-1.133-.537V10.31h0a.691.691,0,0,1,1.087-.567Z" fill="#3481f0"/>
</svg>
