<svg xmlns="http://www.w3.org/2000/svg" width="21.673" height="32.859" viewBox="0 0 21.673 32.859">
  <g id="Group_270" data-name="Group 270" transform="translate(-62.687 -148.529)">
    <rect id="Rectangle_13" data-name="Rectangle 13" width="4.357" height="4.455" transform="translate(71.345 157.348)" fill="#3481f0"/>
    <g id="Group_10" data-name="Group 10" transform="translate(64.187 150.029)">
      <path id="Path_9" data-name="Path 9" d="M21.673,12.546a9.443,9.443,0,0,1-9.336,9.546A9.443,9.443,0,0,1,3,12.546,9.443,9.443,0,0,1,12.336,3a9.443,9.443,0,0,1,9.336,9.546Z" transform="translate(-3 -3)" fill="none" stroke="#3481f0" stroke-linecap="round" stroke-linejoin="round" stroke-width="3"/>
      <path id="Icon_awesome-long-arrow-alt-down" data-name="Icon awesome-long-arrow-alt-down" d="M4.652,9.508V2.527a.274.274,0,0,0-.271-.277H3.115a.274.274,0,0,0-.271.277V9.508H1.8a.557.557,0,0,0-.384.947l1.946,1.99a.534.534,0,0,0,.767,0l1.946-1.99a.557.557,0,0,0-.384-.947Z" transform="translate(5.9 18.752)" fill="#3481f0"/>
    </g>
  </g>
</svg>
