<svg id="Layer_1" data-name="Layer 1" xmlns="http://www.w3.org/2000/svg" viewBox="0 0 270 60"><defs><style>.cls-1,.cls-6{fill:#f7931e;}.cls-2{fill:#e27203;}.cls-3,.cls-4,.cls-5{fill:#fff;}.cls-4{font-size:22.74px;}.cls-4,.cls-5{font-family:Humanist777BT-BlackItalicB, Humnst777 Blk BT;font-weight:800;font-style:italic;}.cls-5{font-size:6.82px;}.cls-6{font-size:5.31px;font-family:Poppins-Medium, Poppins;font-weight:500;letter-spacing:0.51em;}</style></defs><path class="cls-1" d="M112.05,30.6l1-1.09,20.5-22.32c.49-.53.39-.56,1,0l13.41,12.32.4.38a2.65,2.65,0,0,1,.12,3.64c-.92,1.05-1.87,2.07-2.82,3.09-1.14,1.25-2.29,2.48-3.42,3.74a1.06,1.06,0,0,1-.85.38H112.63A1.1,1.1,0,0,1,112.05,30.6Z"/><path class="cls-2" d="M101.2,30.58c0-.18.14-.27.25-.39l5-5.43,8.84-9.61q3.58-3.92,7.18-7.82c1.29-1.41,2.62-2.79,3.87-4.24a2.44,2.44,0,0,1,3.6-.06c.48.53,1.05,1,1.59,1.47s.45.42.06.85c-.9,1-1.81,2-2.71,3l-7.22,7.86L116.28,22l-6.66,7.27c-.36.4-.74.79-1.11,1.19a.65.65,0,0,1-.51.25h-6.56C101.35,30.68,101.26,30.69,101.2,30.58Z"/><path class="cls-1" d="M101.84,26.49l-1.77,1.94c-.6.65-1.2,1.29-1.79,1.95a.9.9,0,0,1-.72.32H91.07a2.15,2.15,0,0,1-2.26-1.9,2.13,2.13,0,0,1,1.72-2.38,5.94,5.94,0,0,1,.94-.06h9.73A.83.83,0,0,1,101.84,26.49Z"/><path class="cls-2" d="M140.81,19.61l-3,3.29a1.27,1.27,0,0,1-1,.45,1.3,1.3,0,0,1-.95-.37l-2-1.82c-.48-.45-1-.88-1.43-1.33a1.3,1.3,0,0,1-.27-1.53,1.59,1.59,0,0,1,.25-.33q3.06-3.33,6.13-6.64c.21-.23.23-.24.46,0l4.86,4.49c.22.21.22.23,0,.46l-3.1,3.36Z"/><path class="cls-3" d="M136.1,19.38a1.68,1.68,0,1,1,2.38-.11A1.69,1.69,0,0,1,136.1,19.38Z"/><text class="cls-4" transform="translate(85.34 49.82)">MONEY</text><text class="cls-5" transform="translate(148.28 30.7)">ALL MY</text><text class="cls-6" transform="translate(98.31 57) scale(1.11 1)">GOES HERE</text><path class="cls-3" d="M81,36.07h3.13l.33-1.57H81a.76.76,0,0,0-.75.79h0A.76.76,0,0,0,81,36.07Z"/><path class="cls-3" d="M78.23,49.19h3.13l.33-1.58H78.23a.78.78,0,0,0-.75.79h0A.77.77,0,0,0,78.23,49.19Z"/><path class="cls-3" d="M76.34,44.82h3.13l.32-1.58H76.34a.76.76,0,0,0-.75.79h0A.76.76,0,0,0,76.34,44.82Z"/><path class="cls-3" d="M78.1,40.45h3.13l.33-1.58H78.1a.77.77,0,0,0-.75.79h0A.78.78,0,0,0,78.1,40.45Z"/><ellipse class="cls-3" cx="115.63" cy="42.33" rx="5.84" ry="5.08" transform="translate(52.19 147.86) rotate(-79.09)"/><path class="cls-1" d="M114.43,48.21c-1-.21-.88-.08-.66-1.05.08-.38,0-.58-.38-.71a3.71,3.71,0,0,1-1.19-.74c-.24-.21-.34-.42-.11-.73a9.41,9.41,0,0,0,.58-1c.14-.24.27-.27.46-.06a3.47,3.47,0,0,0,1.48.95,1.6,1.6,0,0,0,.87.09.86.86,0,0,0,.73-.55.87.87,0,0,0-.21-.93,3.72,3.72,0,0,0-.67-.58,7,7,0,0,1-1.43-1.17,2.54,2.54,0,0,1,1.29-4.18.94.94,0,0,0,.84-.92c.1-.66.13-.66.81-.52,1,.21,1,.21.86,1.2,0,.24,0,.38.24.47a4.12,4.12,0,0,1,1.19.75c.17.15.22.28.08.48s-.46.69-.67,1.05-.28.24-.47.06a3,3,0,0,0-1.23-.75,1.61,1.61,0,0,0-.87-.09.68.68,0,0,0-.4,1.15,5.48,5.48,0,0,0,1.2.94,4.81,4.81,0,0,1,1.09,1,2.74,2.74,0,0,1-1.51,4.33c-.54.14-.81.34-.89.91-.1.75,0,.75-.87.57Z"/></svg>